<svg xmlns="http://www.w3.org/2000/svg" width="25" height="26" fill="none" viewBox="0 0 25 26" class="_icon_f1b3e_52"><path fill="#D7FB5C" d="m12.917.826 1.186 4.743a.428.428 0 0 0 .725.194l3.398-3.513c.311-.322.844-.013.721.416l-1.342 4.699a.429.429 0 0 0 .53.53l4.7-1.342c.428-.123.737.41.415.722l-3.513 3.397a.428.428 0 0 0 .194.725l4.743 1.186c.435.11.435.724 0 .834l-4.743 1.186a.428.428 0 0 0-.194.725l3.513 3.398c.322.311.014.844-.416.721l-4.699-1.342a.429.429 0 0 0-.53.53l1.342 4.7c.123.428-.41.737-.721.415l-3.398-3.513a.428.428 0 0 0-.725.194l-1.186 4.743c-.11.435-.724.435-.834 0l-1.186-4.743a.428.428 0 0 0-.725-.194L6.774 23.75c-.311.322-.844.014-.721-.416l1.342-4.699a.429.429 0 0 0-.53-.53l-4.7 1.342c-.428.123-.737-.41-.415-.721l3.513-3.398a.428.428 0 0 0-.194-.725L.326 13.417c-.435-.11-.435-.724 0-.834l4.743-1.186a.428.428 0 0 0 .194-.725L1.75 7.275c-.322-.312-.013-.845.416-.722l4.699 1.342a.429.429 0 0 0 .53-.53l-1.342-4.7c-.123-.428.41-.737.721-.415l3.398 3.513a.428.428 0 0 0 .725-.194L12.083.826c.11-.435.727-.435.834 0Z"/></svg>