<svg width="1920" height="388" viewBox="0 0 1442 292" fill="none" xmlns="http://www.w3.org/2000/svg" class="hero-waves"><path d="M1 273.913C16.3333 279.977 64.5322 296.303 116 289.275C185.365 279.803 226.597 207.31 256.457 140.887C326 -13.8093 366.378 22.6276 415 66.1152C476 120.673 561.653 217.88 625.5 214.484C739.5 208.42 805 2.77178 864 1.02649C905 -0.186343 915.5 40.6254 971 46.2862C1055.5 54.905 1078.32 11.1342 1162 11.1342C1299 11.1342 1428 180.525 1441 197.505" stroke="#66DCD3" style="--idx:0" class="hero-waves__animated-stroke"></path><path d="M1 262.18C16.2097 268.482 63.64 284.893 114.468 278.599C182.615 269.94 223.772 200.19 253.975 135.93C324.411 -13.7279 365.519 20.9893 414.405 62.5176C475.27 114.759 559.794 208.262 623.919 204.975C739.355 199.107 805.98 1.91106 865.722 1.96803C908.044 2.54029 920.258 43.7089 976.71 48.8968C1060.75 56.9979 1084.93 13.8446 1167.58 12.711C1301.83 11.5774 1427.9 174.031 1441 188.867" stroke="#6BDDD4" style="--idx:1" class="hero-waves__animated-stroke"></path><path d="M1 250.488C16.086 257.027 62.7478 273.522 112.935 267.962C179.865 260.117 220.946 193.11 251.492 131.013C322.823 -13.6064 364.66 19.3911 413.81 58.9601C474.54 108.886 557.934 198.684 622.339 195.507C739.21 189.834 806.96 1.09044 867.444 2.94968C911.089 5.30703 925.016 46.8325 982.419 51.5475C1065.99 59.1309 1091.54 16.5952 1173.16 14.328C1304.65 12.0607 1427.79 167.578 1441 180.268" stroke="#70DED4" style="--idx:2" class="hero-waves__animated-stroke"></path><path d="M1 238.824C15.9624 245.6 61.8557 262.179 111.403 257.354C177.116 250.322 218.12 186.058 249.01 126.124C321.234 -13.4571 363.801 17.8206 413.216 55.4304C473.81 103.039 556.074 189.134 620.758 186.066C739.065 180.589 807.94 0.297564 869.165 3.95907C914.133 8.10151 929.774 49.9839 988.129 54.2259C1071.24 61.2916 1098.15 19.3736 1178.74 15.9727C1307.48 12.5718 1427.69 161.152 1441 171.698" stroke="#75DFD5" style="--idx:3" class="hero-waves__animated-stroke"></path><path d="M1 227.191C15.8387 234.204 60.9635 250.867 109.871 246.777C174.366 240.558 215.294 179.037 246.527 121.266C319.645 -13.2765 362.942 16.2815 412.621 51.932C473.081 97.2246 554.214 179.615 619.177 176.657C738.919 171.375 808.919 -0.463895 870.887 4.99988C917.177 10.9274 934.532 53.1667 993.839 56.9358C1076.49 63.4837 1104.77 22.1833 1184.31 17.6488C1310.3 13.1143 1427.58 154.757 1441 163.159" stroke="#7AE0D5" style="--idx:4" class="hero-waves__animated-stroke"></path><path d="M1 215.593C15.7151 222.843 60.0713 239.591 108.339 236.235C171.616 230.829 212.469 172.051 244.045 116.443C318.056 -13.0609 362.083 14.7774 412.026 48.4686C472.351 91.4448 552.354 170.131 617.597 167.282C738.774 162.196 809.899 -1.19041 872.609 6.07564C920.222 13.7883 939.29 56.3844 999.548 59.6806C1081.74 65.7108 1111.38 25.028 1189.89 19.3599C1313.13 13.6918 1427.48 148.397 1441 154.654" stroke="#7FE1D6" style="--idx:5" class="hero-waves__animated-stroke"></path><path d="M1 204.035C15.5914 211.522 59.1792 228.354 106.806 225.733C168.867 221.14 209.643 165.105 241.562 111.66C316.468 -12.8053 361.224 13.3132 411.431 45.0452C471.621 85.705 550.495 160.686 616.016 157.948C738.629 153.057 810.879 -1.87698 874.331 7.19133C923.266 16.689 944.048 59.642 1005.26 62.4653C1086.98 67.9779 1117.99 27.9127 1195.47 21.1109C1315.95 14.3091 1427.37 142.078 1441 146.19" stroke="#84E3D6" style="--idx:6" class="hero-waves__animated-stroke"></path><path d="M1 192.523C15.4677 200.247 58.287 217.163 105.274 215.276C166.117 211.497 206.817 158.205 239.08 106.922C314.879 -12.5042 360.365 11.8946 410.837 41.6673C470.891 80.0107 548.635 151.288 614.435 148.659C738.484 143.964 811.859 -2.51799 876.052 8.35259C926.31 19.6354 948.806 62.9453 1010.97 65.2956C1092.23 70.2905 1124.6 30.8429 1201.05 22.9075C1318.78 14.9721 1427.27 135.803 1441 137.771" stroke="#89E4D7" style="--idx:7" class="hero-waves__animated-stroke"></path><path d="M1 181.062C15.3441 189.024 57.3948 206.024 103.742 204.872C163.367 201.906 203.992 151.357 236.597 102.237C313.29 -12.1508 359.506 10.5283 410.242 38.3417C470.161 74.3687 546.775 141.942 612.855 139.422C738.339 134.923 812.839 -3.1067 877.774 9.56614C929.355 22.634 953.565 66.3008 1016.68 68.1782C1097.48 72.6554 1131.21 33.8254 1206.63 24.7564C1321.6 15.6873 1427.16 129.581 1441 129.405" stroke="#8DE5D7" style="--idx:8" class="hero-waves__animated-stroke"></path><path d="M1 169.663C15.2204 177.861 56.5027 194.946 102.21 194.528C160.618 192.375 201.166 144.57 234.115 97.6122C311.702 -11.7369 358.647 9.22238 409.647 35.0765C469.431 68.7871 544.915 132.656 611.274 130.246C738.194 125.942 813.819 -3.63499 879.496 10.8401C932.399 25.6931 958.323 69.7168 1022.39 71.1212C1102.73 75.0807 1137.83 36.8683 1212.21 26.6657C1324.43 16.463 1427.06 123.42 1441 121.099" stroke="#92E6D8" style="--idx:9" class="hero-waves__animated-stroke"></path><path d="M1 158.333C15.0968 166.769 55.6105 183.938 100.677 184.254C157.868 182.915 198.34 137.853 231.632 93.058C310.113 -11.2525 357.788 7.98704 409.052 31.8819C468.702 63.2761 543.055 123.441 609.694 121.14C738.048 117.032 814.798 -4.09272 881.218 12.1847C935.444 28.8227 963.081 73.2033 1028.1 74.1348C1107.97 77.5766 1144.44 39.9818 1217.79 28.6455C1327.25 17.3092 1426.95 117.329 1441 112.864" stroke="#97E7D8" style="--idx:10" class="hero-waves__animated-stroke"></path><path d="M1 147.086C14.9731 155.759 54.7183 173.013 99.1452 174.063C155.118 173.537 195.514 131.218 229.15 88.5861C308.524 -10.6859 356.929 6.83394 408.458 28.7695C467.972 57.8474 541.196 114.308 608.113 112.116C737.903 108.204 815.778 -4.46821 882.94 13.6114C938.488 32.0346 967.839 76.772 1033.81 77.2306C1113.22 80.1547 1151.05 43.1775 1223.37 30.7076C1330.08 18.2377 1426.85 111.32 1441 104.71" stroke="#9CE8D9" style="--idx:11" class="hero-waves__animated-stroke"></path><path d="M1 137.993C14.8495 146.903 53.8262 164.24 97.6129 166.025C152.369 166.312 192.689 126.736 226.667 86.2673C306.935 -7.96608 356.07 7.83398 407.863 27.8103C467.242 54.5717 539.336 107.328 606.532 105.246C737.758 101.529 816.758 -2.69056 884.661 17.1914C941.532 37.3996 972.597 82.4939 1039.52 82.4796C1118.47 84.886 1157.66 48.5264 1228.94 34.9228C1332.9 21.3193 1426.74 107.465 1441 98.7104" stroke="#A1E9DA" style="--idx:12" class="hero-waves__animated-stroke"></path><path d="M1 129.024C14.7258 138.171 52.934 155.593 96.0806 158.112C149.619 159.213 189.863 122.38 224.185 84.0735C305.347 -5.12121 355.211 8.95911 407.268 26.9761C466.512 51.4212 537.476 100.473 604.952 98.5008C737.613 94.9797 817.738 -0.787822 886.383 20.8964C944.577 42.8897 977.355 88.3409 1045.23 87.8536C1123.72 89.7423 1164.28 54.0004 1234.52 39.2632C1335.73 24.526 1426.64 103.734 1441 92.8355" stroke="#A6EADA" style="--idx:13" class="hero-waves__animated-stroke"></path><path d="M1 120.077C14.6021 129.462 52.0418 146.968 94.5484 150.222C146.869 152.135 187.037 118.045 221.702 81.902C303.758 -2.2541 354.352 10.1065 406.673 26.1642C465.782 48.2929 535.616 93.6403 603.371 91.7778C737.468 88.4523 818.718 1.13715 888.105 24.6236C947.621 48.4021 982.113 94.2101 1050.94 93.2499C1128.96 94.6209 1170.89 59.4966 1240.1 43.6257C1338.55 27.7549 1426.53 100.026 1441 86.9828" stroke="#ABEBDB" style="--idx:14" class="hero-waves__animated-stroke"></path><path d="M1 111.159C14.4785 120.781 51.1497 138.371 93.0161 142.359C144.12 145.086 184.212 113.739 219.22 79.7585C302.169 0.640915 353.493 11.2818 406.079 25.3802C465.052 45.1925 533.757 86.8356 601.79 85.0827C737.323 81.9529 819.698 3.09003 889.827 28.3788C950.665 53.9423 986.871 100.107 1056.65 98.6741C1134.21 99.5274 1177.5 65.0206 1245.68 48.0162C1341.38 31.0118 1426.43 96.3459 1441 81.158" stroke="#B0ECDB" style="--idx:15" class="hero-waves__animated-stroke"></path><path d="M1 102.276C14.3548 112.135 50.2575 129.809 91.4839 134.532C141.37 138.073 181.386 109.468 216.737 77.6508C300.581 3.57189 352.634 12.493 405.484 24.6322C464.323 42.128 531.897 80.0669 600.21 78.4236C737.177 75.4893 820.677 5.07887 891.548 32.1699C953.71 59.5185 991.629 106.04 1062.35 104.134C1139.46 104.47 1184.11 70.5807 1251.26 52.4426C1344.21 34.3046 1426.32 92.7016 1441 75.3691" stroke="#B5EEDC" style="--idx:16" class="hero-waves__animated-stroke"></path><path d="M1 93.44C14.2312 103.536 49.3653 121.295 89.9516 126.752C138.62 131.106 178.56 105.245 214.255 75.5898C298.992 6.54945 351.775 13.7508 404.889 23.9307C463.593 39.1102 530.037 73.3448 598.629 71.811C737.032 69.0724 821.657 7.11431 893.27 36.0076C956.754 65.1413 996.387 112.02 1068.06 109.641C1144.71 109.459 1190.72 76.1874 1256.84 56.9157C1347.03 37.6439 1426.22 89.1038 1441 69.6269" stroke="#BAEFDC" style="--idx:17" class="hero-waves__animated-stroke"></path><path d="M1 84.6673C14.1075 95.0006 48.4732 112.843 88.4194 119.035C135.871 124.202 175.734 101.084 211.772 73.5921C297.403 9.59033 350.916 15.0719 404.294 23.2926C462.863 36.1557 528.177 66.686 597.048 65.2618C736.887 62.7188 822.637 9.21305 894.992 39.9086C959.798 70.8274 1001.15 118.063 1073.77 115.211C1149.95 114.511 1197.34 81.8573 1262.42 61.452C1349.86 41.0466 1426.11 85.5694 1441 63.9479" stroke="#BFF0DD" style="--idx:18" class="hero-waves__animated-stroke"></path><path d="M1 75.9835C13.9839 86.554 47.581 104.481 86.8871 111.407C133.121 117.387 172.909 97.0125 209.29 71.6833C295.815 12.7202 350.057 16.4821 403.7 22.7434C462.133 33.2901 526.317 60.1162 595.468 58.8015C736.742 56.4541 823.617 11.4008 896.714 43.8986C962.843 76.6025 1005.9 124.195 1079.48 120.87C1155.2 119.653 1203.95 87.6163 1268 66.0773C1352.68 44.5383 1426.01 82.1239 1441 58.358" stroke="#C4F1DD" style="--idx:19" class="hero-waves__animated-stroke"></path><path d="M1 67.4319C13.8602 78.2396 46.6888 96.2508 85.3548 103.911C130.371 110.705 170.083 93.0731 206.807 69.9067C294.226 15.9822 349.199 18.0243 403.105 22.3264C461.403 30.5567 524.458 53.6785 593.887 52.4734C736.597 50.3216 824.597 13.7206 898.435 48.0207C965.887 82.5097 1010.66 130.459 1085.19 126.661C1160.45 124.926 1210.56 93.5073 1273.57 70.8347C1355.51 48.1621 1425.9 78.8106 1441 52.9001" stroke="#C9F2DE" style="--idx:20" class="hero-waves__animated-stroke"></path><path d="M1 59.0941C13.7366 70.139 45.7967 88.2344 83.8226 96.6295C127.622 104.236 167.257 89.3475 204.325 68.3439C292.637 19.458 348.34 19.7804 402.51 22.1232C460.673 28.0371 522.598 47.4547 592.306 46.3591C736.452 44.4029 825.577 16.2543 900.157 52.3566C968.931 88.6307 1015.42 136.937 1090.9 132.666C1165.7 130.413 1217.17 99.6122 1279.15 75.806C1358.33 51.9998 1425.8 75.7111 1441 47.6561" stroke="#CEF3DF" style="--idx:21" class="hero-waves__animated-stroke"></path><path d="M1 51.1748C13.6129 62.4569 44.9045 80.6365 82.2903 89.7661C124.872 98.1861 164.431 86.0404 201.842 67.1997C291.048 23.3523 347.481 21.955 401.915 22.3385C459.944 25.936 520.738 41.6493 590.726 40.6633C736.306 38.9028 826.556 19.2065 901.879 57.1111C971.976 95.1703 1020.18 143.833 1096.61 139.09C1170.94 136.319 1223.79 106.136 1284.73 81.1958C1361.16 56.2559 1425.69 73.0301 1441 42.8306" stroke="#D3F4DF" style="--idx:22" class="hero-waves__animated-stroke"></path><path d="M1 43.9671C13.4892 55.4864 44.0123 73.7502 80.7581 83.6143C122.122 92.8476 161.606 83.4449 199.36 66.767C289.46 27.9582 346.622 24.8412 401.321 23.2654C459.214 24.5465 518.878 36.5556 589.145 35.6791C736.161 34.1142 827.536 22.8703 903.601 62.5772C975.02 102.421 1024.94 151.441 1102.32 146.225C1176.19 142.937 1230.4 113.371 1290.31 87.2972C1363.98 61.2237 1425.59 71.0607 1441 38.7168" stroke="#D8F5E0" style="--idx:23" class="hero-waves__animated-stroke"></path><path d="M1 36.89C13.3656 48.6465 43.1202 66.9945 79.2258 77.593C119.373 87.6397 158.78 80.98 196.877 66.4649C287.871 32.6948 345.763 27.8579 400.726 24.3229C458.484 23.2876 517.018 31.5924 587.565 30.8256C736.016 29.4562 828.516 26.6647 905.323 68.1738C978.065 109.803 1029.69 159.18 1108.03 153.491C1181.44 149.684 1237.01 120.736 1295.89 93.5291C1366.81 66.322 1425.48 69.2219 1441 34.7335" stroke="#DCF6E0" style="--idx:24" class="hero-waves__animated-stroke"></path></svg>